HIERARCHY
ROOT Hips
{
	OFFSET 0.00000 0.00000 0.00000
	CHANNELS 6 Xposition Yposition Zposition Zrotation Yrotation Xrotation 
	JOINT LHipJoint
	{
		OFFSET 0 0 0
		CHANNELS 3 Zrotation Yrotation Xrotation
		JOINT LeftUpLeg
		{
			OFFSET 1.42489 -1.84941 0.69647
			CHANNELS 3 Zrotation Yrotation Xrotation
			JOINT LeftLeg
			{
				OFFSET 2.44443 -6.71602 0.00000
				CHANNELS 3 Zrotation Yrotation Xrotation
				JOINT LeftFoot
				{
					OFFSET 2.62838 -7.22137 0.00000
					CHANNELS 3 Zrotation Yrotation Xrotation
					JOINT LeftToeBase
					{
						OFFSET 0.24036 -0.66037 2.29953
						CHANNELS 3 Zrotation Yrotation Xrotation
						End Site
						{
							OFFSET 0.00000 -0.00000 1.19837
						}
					}
				}
			}
		}
	}
	JOINT RHipJoint
	{
		OFFSET 0 0 0
		CHANNELS 3 Zrotation Yrotation Xrotation
		JOINT RightUpLeg
		{
			OFFSET -1.37055 -1.84941 0.69647
			CHANNELS 3 Zrotation Yrotation Xrotation
			JOINT RightLeg
			{
				OFFSET -2.54834 -7.00152 0.00000
				CHANNELS 3 Zrotation Yrotation Xrotation
				JOINT RightFoot
				{
					OFFSET -2.65692 -7.29983 0.00000
					CHANNELS 3 Zrotation Yrotation Xrotation
					JOINT RightToeBase
					{
						OFFSET -0.18839 -0.51760 2.29390
						CHANNELS 3 Zrotation Yrotation Xrotation
						End Site
						{
							OFFSET -0.00000 -0.00000 1.18261
						}
					}
				}
			}
		}
	}
	JOINT LowerBack
	{
		OFFSET 0 0 0
		CHANNELS 3 Zrotation Yrotation Xrotation
		JOINT Spine
		{
			OFFSET 0.05220 2.15489 0.05011
			CHANNELS 3 Zrotation Yrotation Xrotation
			JOINT Spine1
			{
				OFFSET -0.07653 2.14219 -0.05668
				CHANNELS 3 Zrotation Yrotation Xrotation
				JOINT Neck
				{
					OFFSET 0 0 0
					CHANNELS 3 Zrotation Yrotation Xrotation
					JOINT Neck1
					{
						OFFSET 0.01370 1.58638 0.01447
						CHANNELS 3 Zrotation Yrotation Xrotation
						JOINT Head
						{
							OFFSET 0.23548 1.54190 -0.21747
							CHANNELS 3 Zrotation Yrotation Xrotation
							End Site
							{
								OFFSET 0.07132 1.59823 -0.08163
							}
						}
					}
				}
				JOINT LeftShoulder
				{
					OFFSET 0 0 0
					CHANNELS 3 Zrotation Yrotation Xrotation
					JOINT LeftArm
					{
						OFFSET 3.47056 1.45357 -0.58896
						CHANNELS 3 Zrotation Yrotation Xrotation
						JOINT LeftForeArm
						{
							OFFSET 5.19069 -0.00000 0.00000
							CHANNELS 3 Zrotation Yrotation Xrotation
							JOINT LeftHand
							{
								OFFSET 3.30016 -0.00000 0.00000
								CHANNELS 3 Zrotation Yrotation Xrotation
								JOINT LeftFingerBase
								{
									OFFSET 0 0 0
									CHANNELS 3 Zrotation Yrotation Xrotation
									JOINT LeftHandIndex1
									{
										OFFSET 0.70770 -0.00000 0.00000
										CHANNELS 3 Zrotation Yrotation Xrotation
										End Site
										{
											OFFSET 0.57056 -0.00000 0.00000
										}
									}
								}
								JOINT LThumb
								{
									OFFSET 0 0 0
									CHANNELS 3 Zrotation Yrotation Xrotation
									End Site
									{
										OFFSET 0.57928 -0.00000 0.57928
									}
								}
							}
						}
					}
				}
				JOINT RightShoulder
				{
					OFFSET 0 0 0
					CHANNELS 3 Zrotation Yrotation Xrotation
					JOINT RightArm
					{
						OFFSET -2.89018 2.03305 -0.26731
						CHANNELS 3 Zrotation Yrotation Xrotation
						JOINT RightForeArm
						{
							OFFSET -5.23924 -0.00000 0.00000
							CHANNELS 3 Zrotation Yrotation Xrotation
							JOINT RightHand
							{
								OFFSET -3.32953 -0.00000 0.00000
								CHANNELS 3 Zrotation Yrotation Xrotation
								JOINT RightFingerBase
								{
									OFFSET 0 0 0
									CHANNELS 3 Zrotation Yrotation Xrotation
									JOINT RightHandIndex1
									{
										OFFSET -0.60741 -0.00000 0.00000
										CHANNELS 3 Zrotation Yrotation Xrotation
										End Site
										{
											OFFSET -0.48971 -0.00000 0.00000
										}
									}
								}
								JOINT RThumb
								{
									OFFSET 0 0 0
									CHANNELS 3 Zrotation Yrotation Xrotation
									End Site
									{
										OFFSET -0.49719 -0.00000 0.49719
									}
								}
							}
						}
					}
				}
			}
		}
	}
}
MOTION
Frames: 15
Frame Time: .0083333
7.0048 16.7172 3.5462 -7.2701 -15.4476 -3.3264 0.0000 0.0000 0.0000 -7.3069 -2.7536 -24.2612 15.2631 19.4533 76.0279 1.4532 -2.3273 -22.1551 1.1623 -6.8441 -19.2543 0.0000 0.0000 0.0000 31.8467 -0.0463 -13.3404 -5.5181 -13.9445 43.0154 -2.2022 -2.9666 -29.2253 -0.0118 -0.7013 1.9273 10.5533 -0.6350 -3.5199 2.1424 -1.3836 0.6770 -3.7538 -0.5526 2.4995 0.4069 -0.5776 -9.5276 2.8771 -1.1925 10.3874 0.7414 -0.3933 4.6939 0.0000 -0.0000 0.0000 -75.2653 -0.4555 66.7868 26.7554 -37.9450 -9.3484 -0.0000 0.0000 -15.1330 11.2524 -18.1869 -3.5534 -7.1250 0.0000 -0.0000 -11.0033 11.7166 8.7057 0.0000 -0.0000 0.0000 79.5310 4.4914 48.6113 -32.0104 42.5554 -12.7478 0.0000 -0.0000 -1.4636 -17.6183 10.1232 -3.1948 7.1250 -0.0000 -0.0000 6.6694 -19.4071 4.1021
6.9420 16.7722 3.6510 -7.1729 -15.2623 -3.3712 0.0000 0.0000 0.0000 -7.4533 -3.2838 -25.9399 14.9242 19.3708 75.0084 1.5279 -1.9169 -22.8348 1.1772 -6.8863 -19.3789 0.0000 0.0000 0.0000 31.9517 -0.2816 -12.4118 -5.2819 -13.6944 42.0269 -2.1479 -3.3313 -29.0384 -0.0116 -0.6943 1.9080 10.3798 -0.3110 -3.5018 1.8382 -0.9250 0.5647 -3.9514 -0.3314 2.4333 0.0038 -0.8620 -9.5414 3.1676 -1.5623 10.6667 0.8717 -0.5692 4.7923 0.0000 0.0000 0.0000 -74.4154 0.6532 66.3797 25.9887 -37.1976 -8.8808 -0.0000 0.0000 -15.0414 10.8542 -18.0397 -3.3981 -7.1250 0.0000 -0.0000 -11.2628 11.8976 8.8763 0.0000 0.0000 0.0000 79.8194 5.4870 49.9967 -33.5016 43.7120 -13.7675 0.0000 -0.0000 -1.9118 -17.6392 10.2380 -3.2347 7.1250 -0.0000 -0.0000 6.6542 -19.2866 4.1106
6.8802 16.8338 3.7580 -7.0577 -15.0591 -3.3714 0.0000 0.0000 0.0000 -7.6485 -3.8096 -27.5532 14.5137 19.2625 73.7673 1.5999 -1.4861 -23.4937 1.1933 -6.9315 -19.5127 0.0000 0.0000 0.0000 32.0333 -0.5221 -11.5017 -5.0328 -13.4206 40.9641 -2.0783 -3.7349 -28.7731 -0.0105 -0.6626 1.8207 10.2009 0.0156 -3.5375 1.5200 -0.4694 0.4451 -4.1608 -0.1106 2.3918 -0.3912 -1.1451 -9.5874 3.4573 -1.9332 10.9564 0.9997 -0.7449 4.9021 0.0000 -0.0000 0.0000 -73.3945 1.7311 66.2305 25.4370 -36.6473 -8.5494 -0.0000 0.0000 -14.9427 10.4021 -17.9085 -3.2308 -7.1250 0.0000 -0.0000 -11.5581 12.0659 9.0778 0.0000 -0.0000 0.0000 80.0564 6.4872 51.3123 -35.1027 44.8853 -14.8858 0.0000 -0.0000 -2.3298 -17.6757 10.3606 -3.2801 7.1250 -0.0000 -0.0000 6.6283 -19.1568 4.1136
6.8197 16.9020 3.8668 -6.9311 -14.8291 -3.3205 0.0000 0.0000 0.0000 -7.8836 -4.3491 -29.0998 14.0379 19.1255 72.3202 1.6674 -1.0087 -24.1304 1.2111 -6.9813 -19.6600 0.0000 0.0000 0.0000 32.0920 -0.7930 -10.6379 -4.7752 -13.1260 39.8421 -1.9927 -4.1646 -28.4173 -0.0086 -0.5998 1.6482 10.0204 0.3358 -3.6261 1.1947 -0.0287 0.3140 -4.3765 0.1033 2.3685 -0.7805 -1.4252 -9.6351 3.7363 -2.3001 11.2292 1.1234 -0.9191 5.0094 0.0000 0.0000 0.0000 -72.2274 2.7917 66.3168 25.0810 -36.2866 -8.3378 -0.0000 0.0000 -14.8624 9.9322 -17.7809 -3.0609 -7.1250 0.0000 -0.0000 -11.8655 12.2306 9.2887 0.0000 0.0000 0.0000 80.2377 7.4911 52.5471 -36.8207 46.0693 -16.1108 0.0000 -0.0000 -2.7101 -17.7263 10.4923 -3.3313 7.1250 -0.0000 -0.0000 6.5924 -19.0166 4.1117
6.7609 16.9761 3.9767 -6.8088 -14.5726 -3.2240 0.0000 0.0000 0.0000 -8.1381 -4.9070 -30.5636 13.5026 18.9562 70.6796 1.7308 -0.4815 -24.7514 1.2233 -7.0151 -19.7600 0.0000 0.0000 0.0000 32.1403 -1.1110 -9.8334 -4.5148 -12.8156 38.6822 -1.8910 -4.6117 -27.9623 -0.0062 -0.5078 1.3953 9.8532 0.6435 -3.7582 0.8689 0.3897 0.1794 -4.5998 0.3072 2.3653 -1.1744 -1.6990 -9.6808 4.0133 -2.6572 11.4712 1.2475 -1.0892 5.1092 0.0000 0.0000 0.0000 -70.9364 3.8362 66.6075 24.8996 -36.1012 -8.2307 -0.0000 0.0000 -14.8299 9.4930 -17.6600 -2.9040 -7.1250 0.0000 -0.0000 -12.1534 12.3848 9.4849 0.0000 0.0000 0.0000 80.3654 8.5098 53.6870 -38.6626 47.2573 -17.4506 0.0000 -0.0000 -3.0614 -17.7906 10.6396 -3.3905 7.1250 -0.0000 -0.0000 6.5471 -18.8592 4.1062
6.7040 17.0548 4.0868 -6.6995 -14.2932 -3.0898 0.0000 0.0000 0.0000 -8.3994 -5.4878 -31.9282 12.9145 18.7511 68.8598 1.7905 0.0925 -25.3646 1.2231 -7.0147 -19.7589 0.0000 0.0000 0.0000 32.1837 -1.4842 -9.1017 -4.2589 -12.4971 37.5141 -1.7723 -5.0781 -27.3982 -0.0034 -0.3755 1.0318 9.7075 0.9382 -3.9194 0.5457 0.7859 0.0486 -4.8318 0.5013 2.3819 -1.5696 -1.9679 -9.7176 4.2890 -3.0059 11.6612 1.3717 -1.2560 5.1938 0.0000 -0.0000 0.0000 -69.5386 4.8597 67.0734 24.8793 -36.0803 -8.2187 -0.0000 0.0000 -14.8806 9.1029 -17.5385 -2.7643 -7.1250 0.0000 -0.0000 -12.4098 12.5347 9.6552 0.0000 -0.0000 0.0000 80.4399 9.5499 54.7155 -40.6376 48.4431 -18.9150 0.0000 -0.0000 -3.3827 -17.8605 10.7897 -3.4521 7.1250 -0.0000 -0.0000 6.4981 -18.6983 4.0983
6.6494 17.1366 4.1967 -6.6039 -13.9931 -2.9323 0.0000 0.0000 0.0000 -8.6656 -6.0915 -33.1723 12.2789 18.5061 66.8703 1.8455 0.7449 -25.9780 1.2161 -6.9953 -19.7014 0.0000 0.0000 0.0000 32.2214 -1.9191 -8.4517 -4.0146 -12.1798 36.3711 -1.6390 -5.5586 -26.7294 -0.0011 -0.2150 0.5907 9.5822 1.2160 -4.0982 0.2278 1.1562 -0.0684 -5.0692 0.6843 2.4218 -1.9559 -2.2322 -9.7404 4.5490 -3.3458 11.7843 1.4900 -1.4199 5.2570 0.0000 -0.0000 0.0000 -68.0600 5.8578 67.6634 25.0003 -36.2042 -8.2901 -0.0000 0.0000 -15.0238 8.7589 -17.4145 -2.6401 -7.1250 0.0000 -0.0000 -12.6365 12.6824 9.8008 0.0000 -0.0000 0.0000 80.4571 10.6245 55.6350 -42.7525 49.6187 -20.5120 0.0000 -0.0000 -3.6939 -17.9341 10.9404 -3.5149 7.1250 -0.0000 -0.0000 6.4468 -18.5364 4.0888
6.5970 17.2200 4.3055 -6.5331 -13.6877 -2.7637 0.0000 0.0000 0.0000 -8.9205 -6.7036 -34.2782 11.6022 18.2174 64.7222 1.8954 1.4774 -26.5963 1.2029 -6.9584 -19.5921 0.0000 0.0000 0.0000 32.2665 -2.4051 -7.8847 -3.7885 -11.8735 35.2858 -1.4932 -6.0528 -25.9633 -0.0000 -0.0447 0.1228 9.4824 1.4766 -4.2694 -0.0754 1.5022 -0.1702 -5.3053 0.8564 2.4723 -2.3346 -2.4870 -9.7440 4.7897 -3.6688 11.8419 1.6022 -1.5776 5.2978 -0.0000 -0.0000 0.0000 -66.5390 6.8425 68.3132 25.2354 -36.4436 -8.4294 -0.0000 0.0000 -15.2311 8.4555 -17.2996 -2.5312 -7.1250 0.0000 -0.0000 -12.8370 12.8174 9.9274 -0.0000 -0.0000 0.0000 80.4050 11.7325 56.4571 -45.0178 50.7772 -22.2526 0.0000 -0.0000 -4.0099 -18.0224 11.0814 -3.5783 7.1250 -0.0000 -0.0000 6.3854 -18.3833 4.0711
6.5467 17.3037 4.4130 -6.4899 -13.3847 -2.5965 0.0000 0.0000 0.0000 -9.1585 -7.3151 -35.2276 10.8899 17.8808 62.4237 1.9389 2.2986 -27.2217 1.1838 -6.9051 -19.4344 0.0000 0.0000 0.0000 32.3235 -2.9327 -7.3961 -3.5843 -11.5857 34.2818 -1.3389 -6.5613 -25.1188 -0.0003 0.1148 -0.3155 9.4056 1.7208 -4.4245 -0.3595 1.8258 -0.2489 -5.5344 1.0190 2.5368 -2.6989 -2.7322 -9.7292 5.0056 -3.9754 11.8337 1.7056 -1.7293 5.3157 -0.0000 0.0000 0.0000 -65.0017 7.7966 68.9920 25.5560 -36.7669 -8.6205 -0.0000 0.0000 -15.5067 8.1628 -17.1809 -2.4262 -7.1250 0.0000 -0.0000 -13.0309 12.9548 10.0471 -0.0000 0.0000 0.0000 80.2809 12.8849 57.1775 -47.4294 51.9046 -24.1359 0.0000 -0.0000 -4.3444 -18.1076 11.2162 -3.6394 7.1250 -0.0000 -0.0000 6.3264 -18.2368 4.0536
6.4983 17.3863 4.5188 -6.4743 -13.0931 -2.4348 0.0000 0.0000 0.0000 -9.3772 -7.9111 -36.0125 10.1493 17.4930 59.9863 1.9778 3.1884 -27.8660 1.1602 -6.8383 -19.2371 0.0000 0.0000 0.0000 32.3941 -3.4886 -6.9837 -3.4038 -11.3218 33.3728 -1.1791 -7.0819 -24.2084 -0.0015 0.2493 -0.6849 9.3444 1.9508 -4.5576 -0.6214 2.1307 -0.3028 -5.7493 1.1739 2.6139 -3.0340 -2.9651 -9.7183 5.1844 -4.2627 11.7836 1.7939 -1.8732 5.3207 0.0000 -0.0000 0.0000 -63.4739 8.7177 69.6657 25.9301 -37.1396 -8.8454 -0.0000 0.0000 -15.8057 7.8903 -17.0840 -2.3314 -7.1250 0.0000 -0.0000 -13.2116 13.0687 10.1619 0.0000 -0.0000 0.0000 80.0858 14.0899 57.7947 -49.9842 52.9891 -26.1616 0.0000 -0.0000 -4.7062 -18.1967 11.3388 -3.6979 7.1250 -0.0000 -0.0000 6.2648 -18.1026 4.0323
6.4513 17.4668 4.6232 -6.4969 -12.8195 -2.2851 0.0000 0.0000 0.0000 -9.5608 -8.4747 -36.6275 9.3887 17.0515 57.4250 2.0138 4.1065 -28.5277 1.1291 -6.7491 -18.9741 0.0000 0.0000 0.0000 32.4945 -4.0581 -6.6293 -3.2458 -11.0827 32.5594 -1.0190 -7.6073 -23.2613 -0.0023 0.3131 -0.8601 9.2980 2.1691 -4.6617 -0.8527 2.4208 -0.3346 -5.9406 1.3225 2.6968 -3.3540 -3.1840 -9.6926 5.3459 -4.5295 11.6936 1.8761 -2.0081 5.3108 0.0000 0.0000 0.0000 -61.9791 9.6065 70.3287 26.3294 -37.5321 -9.0876 -0.0000 0.0000 -16.1155 7.6315 -17.0070 -2.2443 -7.1250 0.0000 -0.0000 -13.3829 13.1617 10.2744 0.0000 0.0000 0.0000 79.8108 15.3271 58.3029 -52.7066 54.0304 -28.3504 0.0000 -0.0000 -5.1128 -18.2855 11.4429 -3.7507 7.1250 -0.0000 -0.0000 6.2035 -17.9874 4.0082
6.4048 17.5438 4.7265 -6.5556 -12.5655 -2.1470 0.0000 0.0000 0.0000 -9.7096 -8.9907 -37.0797 8.6177 16.5553 54.7584 2.0443 5.0261 -29.1799 1.0928 -6.6432 -18.6625 0.0000 0.0000 0.0000 32.6262 -4.6268 -6.3186 -3.1072 -10.8666 31.8314 -0.8618 -8.1392 -22.3006 -0.0022 0.3025 -0.8312 9.2544 2.3765 -4.7454 -1.0510 2.6970 -0.3478 -6.0990 1.4649 2.7857 -3.6471 -3.3897 -9.6545 5.4759 -4.7778 11.5870 1.9457 -2.1352 5.2927 -0.0000 -0.0000 0.0000 -60.5336 10.4628 70.9754 26.7277 -37.9183 -9.3313 -0.0000 0.0000 -16.4085 7.3686 -16.9471 -2.1587 -7.1250 0.0000 -0.0000 -13.5566 13.2378 10.3934 -0.0000 -0.0000 0.0000 79.4608 16.5930 58.7007 -55.5863 55.0143 -30.6958 0.0000 -0.0000 -5.5588 -18.3713 11.5221 -3.7952 7.1250 -0.0000 -0.0000 6.1442 -17.8982 3.9816
6.3584 17.6165 4.8292 -6.6546 -12.3292 -2.0190 0.0000 0.0000 0.0000 -9.8159 -9.4506 -37.3796 7.8471 16.0056 52.0099 2.0745 5.8707 -29.8131 1.0463 -6.5048 -18.2562 0.0000 0.0000 0.0000 32.7978 -5.1874 -6.0327 -2.9836 -10.6684 31.1695 -0.7100 -8.6763 -21.3473 -0.0012 0.2201 -0.6047 9.2084 2.5739 -4.8169 -1.2143 2.9600 -0.3421 -6.2193 1.6017 2.8846 -3.9184 -3.5827 -9.6188 5.5923 -5.0105 11.4826 2.0085 -2.2546 5.2751 -0.0000 0.0000 0.0000 -59.1425 11.2784 71.6166 27.1052 -38.2793 -9.5642 -0.0000 0.0000 -16.6681 7.1163 -16.9132 -2.0801 -7.1250 0.0000 -0.0000 -13.7225 13.2873 10.5138 -0.0000 0.0000 0.0000 79.0444 17.8816 58.9725 -58.6194 55.9307 -33.1949 0.0000 -0.0000 -6.0320 -18.4413 11.5905 -3.8329 7.1250 -0.0000 -0.0000 6.0960 -17.8215 3.9604
6.3114 17.6839 4.9319 -6.7960 -12.1021 -1.8981 0.0000 0.0000 0.0000 -9.8771 -9.8493 -37.5452 7.0877 15.4053 49.2051 2.0996 6.6077 -30.3738 1.0022 -6.3703 -17.8628 0.0000 0.0000 0.0000 33.0164 -5.7351 -5.7552 -2.8703 -10.4820 30.5522 -0.5652 -9.2222 -20.4207 -0.0002 0.0880 -0.2418 9.1570 2.7609 -4.8933 -1.3437 3.2073 -0.3172 -6.3004 1.7319 3.0026 -4.1706 -3.7643 -9.5758 5.7099 -5.2311 11.3784 2.0697 -2.3672 5.2562 -0.0000 0.0000 0.0000 -57.8048 12.0434 72.2603 27.4535 -38.6082 -9.7808 -0.0000 0.0000 -16.8907 6.8563 -16.8853 -2.0002 -7.1250 0.0000 -0.0000 -13.8933 13.3313 10.6397 -0.0000 0.0000 0.0000 78.5738 19.1904 59.1133 -61.7857 56.7673 -35.8309 0.0000 -0.0000 -6.5064 -18.4969 11.6443 -3.8628 7.1250 -0.0000 -0.0000 6.0577 -17.7610 3.9433
6.2632 17.7452 5.0354 -6.9780 -11.8737 -1.7810 0.0000 0.0000 0.0000 -9.8963 -10.1848 -37.5968 6.3498 14.7590 46.3702 2.1210 7.1737 -30.8271 0.9591 -6.2361 -17.4710 0.0000 0.0000 0.0000 33.2823 -6.2726 -5.4720 -2.7629 -10.3009 29.9568 -0.4306 -9.7626 -19.5463 -0.0002 -0.0916 0.2516 9.0929 2.9343 -4.9803 -1.4397 3.4353 -0.2837 -6.3388 1.8526 3.1298 -4.4061 -3.9360 -9.5172 5.8326 -5.4430 11.2915 2.1305 -2.4746 5.2401 0.0000 -0.0000 0.0000 -56.5149 12.7769 72.9226 27.7743 -38.9076 -9.9816 -0.0000 0.0000 -17.0712 6.5952 -16.8697 -1.9217 -7.1250 0.0000 -0.0000 -14.0644 13.3629 10.7696 0.0000 -0.0000 0.0000 78.0627 20.4951 59.1230 -65.0627 57.5146 -38.5838 0.0000 -0.0000 -6.9700 -18.5456 11.6946 -3.8901 7.1250 -0.0000 -0.0000 6.0242 -17.7047 3.9287
